<svg xmlns="http://www.w3.org/2000/svg" version="1.1" xmlns:xlink="http://www.w3.org/1999/xlink" width="1000" height="1000"><g clip-path="url(#SvgjsClipPath1047)"><rect width="1000" height="1000" fill="#ffffff"></rect><g transform="matrix(3.9647577092511015,0,0,3.9647577092511015,50,381.057268722467)"><svg xmlns="http://www.w3.org/2000/svg" version="1.1" xmlns:xlink="http://www.w3.org/1999/xlink" width="227" height="60"><svg width="227" height="60" viewBox="0 0 227 60" fill="none" xmlns="http://www.w3.org/2000/svg">
<g clip-path="url(#clip0_19_119)">
<path d="M19 0.0519714L0 13.698V48.702L10.5341 59.2361L10.3021 22.4716L19 15.3602L27.6979 22.4716L27.4659 59.2361L38 48.702V13.698L19 0.0519714Z" fill="#252420"></path>
<path d="M25.9939 29.644L19 33.843L12.0062 29.644V41.9026L19 46.107L25.9939 41.9026V29.644Z" fill="#FF7401"></path>
</g>
<path d="M62.6875 35.9878H56.4219L55.2031 40.644H50.3438L57.4531 17.894H61.6562L68.8125 40.644H63.9062L62.6875 35.9878ZM57.4219 32.1597H61.6719L59.5469 24.0503L57.4219 32.1597ZM76.3438 34.1284L75.1562 35.4565V40.644H70.7344V16.644H75.1562V29.6128L75.7031 28.8003L78.7656 23.7378H84.0312L79.125 30.7065L84.5 40.644H79.4375L76.3438 34.1284ZM94.0781 40.644C93.9531 40.3836 93.8281 39.9461 93.7031 39.3315C92.9115 40.4149 91.8385 40.9565 90.4844 40.9565C89.0677 40.9565 87.8906 40.4878 86.9531 39.5503C86.026 38.6128 85.5625 37.3993 85.5625 35.9097C85.5625 34.1388 86.125 32.769 87.25 31.8003C88.3854 30.8315 90.0156 30.3368 92.1406 30.3159H93.4844V28.9565C93.4844 28.1961 93.3542 27.6597 93.0938 27.3472C92.8333 27.0347 92.4531 26.8784 91.9531 26.8784C90.849 26.8784 90.2969 27.5243 90.2969 28.8159H85.875C85.875 27.2534 86.4583 25.967 87.625 24.9565C88.8021 23.9357 90.2865 23.4253 92.0781 23.4253C93.9323 23.4253 95.3646 23.9097 96.375 24.8784C97.3958 25.8368 97.9062 27.2118 97.9062 29.0034V36.9565C97.9271 38.4149 98.1354 39.5555 98.5312 40.3784V40.644H94.0781ZM91.4688 37.4878C91.9583 37.4878 92.375 37.3888 92.7188 37.1909C93.0625 36.993 93.3177 36.7586 93.4844 36.4878V32.9722H92.4219C91.6719 32.9722 91.0781 33.2118 90.6406 33.6909C90.2135 34.1701 90 34.8107 90 35.6128C90 36.8628 90.4896 37.4878 91.4688 37.4878ZM100.516 31.6753C100.516 28.9045 100.984 26.8368 101.922 25.4722C102.859 24.1076 104.224 23.4253 106.016 23.4253C107.318 23.4253 108.401 23.9878 109.266 25.1128V16.644H113.719V40.644H109.703L109.5 38.9253C108.594 40.2795 107.427 40.9565 106 40.9565C104.229 40.9565 102.875 40.2795 101.938 38.9253C101.01 37.5711 100.536 35.5815 100.516 32.9565V31.6753ZM104.953 32.7847C104.953 34.4513 105.13 35.618 105.484 36.2847C105.839 36.9409 106.438 37.269 107.281 37.269C108.156 37.269 108.818 36.8784 109.266 36.0972V28.3784C108.828 27.5451 108.172 27.1284 107.297 27.1284C106.484 27.1284 105.891 27.4565 105.516 28.1128C105.141 28.769 104.953 29.9357 104.953 31.6128V32.7847ZM123.812 40.9565C121.542 40.9565 119.771 40.2795 118.5 38.9253C117.229 37.5711 116.594 35.6336 116.594 33.1128V31.769C116.594 29.1024 117.177 27.0451 118.344 25.5972C119.51 24.1493 121.182 23.4253 123.359 23.4253C125.484 23.4253 127.083 24.1076 128.156 25.4722C129.229 26.8263 129.776 28.8368 129.797 31.5034V33.6753H121C121.062 34.9253 121.339 35.842 121.828 36.4253C122.318 36.9982 123.073 37.2847 124.094 37.2847C125.573 37.2847 126.807 36.7795 127.797 35.769L129.531 38.4409C128.99 39.1909 128.203 39.8003 127.172 40.269C126.141 40.7274 125.021 40.9565 123.812 40.9565ZM121.031 30.5815H125.453V30.1753C125.432 29.1649 125.266 28.3993 124.953 27.8784C124.641 27.3576 124.099 27.0972 123.328 27.0972C122.557 27.0972 121.995 27.3732 121.641 27.9253C121.297 28.4774 121.094 29.3628 121.031 30.5815ZM136.453 23.7378L136.578 25.3003C137.568 24.0503 138.875 23.4253 140.5 23.4253C142.188 23.4253 143.38 24.1857 144.078 25.7065C145.047 24.1857 146.427 23.4253 148.219 23.4253C151.177 23.4253 152.693 25.4722 152.766 29.5659V40.644H148.344V29.8472C148.344 28.868 148.208 28.1701 147.938 27.7534C147.667 27.3368 147.208 27.1284 146.562 27.1284C145.74 27.1284 145.125 27.6336 144.719 28.644L144.75 29.1753V40.644H140.328V29.8784C140.328 28.9097 140.198 28.2118 139.938 27.7847C139.677 27.3472 139.214 27.1284 138.547 27.1284C137.786 27.1284 137.182 27.5399 136.734 28.3628V40.644H132.312V23.7378H136.453Z" fill="#252420"></path>
<path d="M160.094 23.7378L160.219 25.4097C161.219 24.0868 162.526 23.4253 164.141 23.4253C167.047 23.4253 168.542 25.4618 168.625 29.5347V40.644H164.188V29.8628C164.188 28.9045 164.042 28.2118 163.75 27.7847C163.469 27.3472 162.969 27.1284 162.25 27.1284C161.448 27.1284 160.823 27.5399 160.375 28.3628V40.644H155.938V23.7378H160.094ZM179.828 40.644C179.703 40.3836 179.578 39.9461 179.453 39.3315C178.661 40.4149 177.589 40.9565 176.234 40.9565C174.818 40.9565 173.641 40.4878 172.703 39.5503C171.776 38.6128 171.312 37.3993 171.312 35.9097C171.312 34.1388 171.875 32.769 173 31.8003C174.135 30.8315 175.766 30.3368 177.891 30.3159H179.234V28.9565C179.234 28.1961 179.104 27.6597 178.844 27.3472C178.583 27.0347 178.203 26.8784 177.703 26.8784C176.599 26.8784 176.047 27.5243 176.047 28.8159H171.625C171.625 27.2534 172.208 25.967 173.375 24.9565C174.552 23.9357 176.036 23.4253 177.828 23.4253C179.682 23.4253 181.115 23.9097 182.125 24.8784C183.146 25.8368 183.656 27.2118 183.656 29.0034V36.9565C183.677 38.4149 183.885 39.5555 184.281 40.3784V40.644H179.828ZM177.219 37.4878C177.708 37.4878 178.125 37.3888 178.469 37.1909C178.812 36.993 179.068 36.7586 179.234 36.4878V32.9722H178.172C177.422 32.9722 176.828 33.2118 176.391 33.6909C175.964 34.1701 175.75 34.8107 175.75 35.6128C175.75 36.8628 176.24 37.4878 177.219 37.4878ZM194.344 36.1128C194.344 35.7378 194.161 35.394 193.797 35.0815C193.443 34.7586 192.646 34.3263 191.406 33.7847C189.583 33.0451 188.328 32.2795 187.641 31.4878C186.964 30.6961 186.625 29.7118 186.625 28.5347C186.625 27.0555 187.156 25.8368 188.219 24.8784C189.292 23.9097 190.708 23.4253 192.469 23.4253C194.323 23.4253 195.807 23.9045 196.922 24.8628C198.036 25.8211 198.594 27.1076 198.594 28.7222H194.172C194.172 27.3472 193.599 26.6597 192.453 26.6597C191.984 26.6597 191.599 26.8055 191.297 27.0972C190.995 27.3888 190.844 27.7951 190.844 28.3159C190.844 28.6909 191.01 29.0243 191.344 29.3159C191.677 29.5972 192.464 30.0034 193.703 30.5347C195.505 31.2013 196.776 31.9461 197.516 32.769C198.266 33.5815 198.641 34.6388 198.641 35.9409C198.641 37.4513 198.073 38.6649 196.938 39.5815C195.802 40.4982 194.312 40.9565 192.469 40.9565C191.229 40.9565 190.135 40.717 189.188 40.2378C188.24 39.7482 187.495 39.0711 186.953 38.2065C186.422 37.342 186.156 36.4097 186.156 35.4097H190.359C190.38 36.1805 190.557 36.7586 190.891 37.144C191.234 37.5295 191.792 37.7222 192.562 37.7222C193.75 37.7222 194.344 37.1857 194.344 36.1128ZM205.703 25.2222C206.661 24.0243 207.839 23.4253 209.234 23.4253C210.776 23.4253 211.948 23.967 212.75 25.0503C213.552 26.1336 213.958 27.7482 213.969 29.894V40.644H209.531V29.9409C209.531 28.9513 209.375 28.2378 209.062 27.8003C208.76 27.3524 208.266 27.1284 207.578 27.1284C206.776 27.1284 206.151 27.4982 205.703 28.2378V40.644H201.281V16.644H205.703V25.2222ZM225.484 28.0034L224.016 27.8784C222.807 27.8784 221.99 28.4097 221.562 29.4722V40.644H217.125V23.7378H221.297L221.422 25.5659C222.12 24.1388 223.083 23.4253 224.312 23.4253C224.812 23.4253 225.219 23.493 225.531 23.6284L225.484 28.0034Z" fill="#FF7500"></path>
<defs>
<clipPath id="clip0_19_119">
<rect width="38" height="59.1841" fill="white" transform="translate(0 0.0519714)"></rect>
</clipPath>
<clipPath id="SvgjsClipPath1047"><rect width="1000" height="1000" x="0" y="0" rx="350" ry="350"></rect></clipPath></defs>
</svg></svg></g></g></svg>