<svg width="25" height="24" viewBox="0 0 25 24" fill="none" xmlns="http://www.w3.org/2000/svg">
<path id="icon-facebook" d="M22.8557 0H1.50566C0.773664 0 0.180664 0.593 0.180664 1.325V22.676C0.180664 23.407 0.773664 24 1.50566 24H13.0007V14.706H9.87266V11.084H13.0007V8.413C13.0007 5.313 14.8937 3.625 17.6597 3.625C18.9847 3.625 20.1227 3.724 20.4547 3.768V7.008L18.5367 7.009C17.0327 7.009 16.7417 7.724 16.7417 8.772V11.085H20.3287L19.8617 14.707H16.7417V24H22.8577C23.5877 24 24.1807 23.407 24.1807 22.675V1.325C24.1807 0.593 23.5877 0 22.8557 0Z" fill="#FF7500"/>
</svg>
