<svg width="25" height="24" viewBox="0 0 25 24" fill="none" xmlns="http://www.w3.org/2000/svg">
<path id="icon-instagram" fill-rule="evenodd" clip-rule="evenodd" d="M12.1807 0C8.92166 0 8.51366 0.014 7.23366 0.072C2.87566 0.272 0.453664 2.69 0.253664 7.052C0.194664 8.333 0.180664 8.741 0.180664 12C0.180664 15.259 0.194664 15.668 0.252664 16.948C0.452664 21.306 2.87066 23.728 7.23266 23.928C8.51366 23.986 8.92166 24 12.1807 24C15.4397 24 15.8487 23.986 17.1287 23.928C21.4827 23.728 23.9107 21.31 24.1077 16.948C24.1667 15.668 24.1807 15.259 24.1807 12C24.1807 8.741 24.1667 8.333 24.1087 7.053C23.9127 2.699 21.4917 0.273 17.1297 0.073C15.8487 0.014 15.4397 0 12.1807 0ZM12.1807 2.163C15.3847 2.163 15.7647 2.175 17.0307 2.233C20.2827 2.381 21.8017 3.924 21.9497 7.152C22.0077 8.417 22.0187 8.797 22.0187 12.001C22.0187 15.206 22.0067 15.585 21.9497 16.85C21.8007 20.075 20.2857 21.621 17.0307 21.769C15.7647 21.827 15.3867 21.839 12.1807 21.839C8.97666 21.839 8.59666 21.827 7.33166 21.769C4.07166 21.62 2.56066 20.07 2.41266 16.849C2.35466 15.584 2.34266 15.205 2.34266 12C2.34266 8.796 2.35566 8.417 2.41266 7.151C2.56166 3.924 4.07666 2.38 7.33166 2.232C8.59766 2.175 8.97666 2.163 12.1807 2.163ZM6.01866 12C6.01866 8.597 8.77766 5.838 12.1807 5.838C15.5837 5.838 18.3427 8.597 18.3427 12C18.3427 15.404 15.5837 18.163 12.1807 18.163C8.77766 18.163 6.01866 15.403 6.01866 12ZM12.1807 16C9.97166 16 8.18066 14.21 8.18066 12C8.18066 9.791 9.97166 8 12.1807 8C14.3897 8 16.1807 9.791 16.1807 12C16.1807 14.21 14.3897 16 12.1807 16ZM17.1457 5.595C17.1457 4.8 17.7907 4.155 18.5867 4.155C19.3817 4.155 20.0257 4.8 20.0257 5.595C20.0257 6.39 19.3817 7.035 18.5867 7.035C17.7907 7.035 17.1457 6.39 17.1457 5.595Z" fill="#FF7500"/>
</svg>
