<svg width="25" height="24" viewBox="0 0 25 24" fill="none" xmlns="http://www.w3.org/2000/svg">
<path d="M12.1807 0C5.55666 0 0.180664 5.376 0.180664 12C0.180664 18.624 5.55666 24 12.1807 24C18.8047 24 24.1807 18.624 24.1807 12C24.1807 5.376 18.8047 0 12.1807 0ZM17.7487 8.16C17.5687 10.056 16.7887 14.664 16.3927 16.788C16.2247 17.688 15.8887 17.988 15.5767 18.024C14.8807 18.084 14.3527 17.568 13.6807 17.124C12.6247 16.428 12.0247 15.996 11.0047 15.324C9.81666 14.544 10.5847 14.112 11.2687 13.416C11.4487 13.236 14.5207 10.44 14.5807 10.188C14.5927 10.152 14.5927 10.044 14.5207 9.972C14.4487 9.912 14.3527 9.936 14.2687 9.948C14.1607 9.972 12.4807 11.088 9.20467 13.296C8.72466 13.62 8.29266 13.788 7.90866 13.776C7.47666 13.764 6.66066 13.536 6.04866 13.332C5.29266 13.092 4.70466 12.96 4.75266 12.54C4.77666 12.324 5.07666 12.108 5.64066 11.88C9.14466 10.356 11.4727 9.348 12.6367 8.868C15.9727 7.476 16.6567 7.236 17.1127 7.236C17.2087 7.236 17.4367 7.26 17.5807 7.38C17.7007 7.476 17.7367 7.608 17.7487 7.704C17.7367 7.776 17.7607 7.992 17.7487 8.16Z" fill="#FF7500"/>
</svg>
